<svg xmlns="http://www.w3.org/2000/svg" viewBox="0 0 595.28 595.28"><defs><style>.cls-1{fill:none;}.cls-2{fill:#d9dcec;}.cls-3{fill:#133676;}</style></defs><g id="Layer_2" data-name="Layer 2"><rect class="cls-1" width="595.28" height="595.28"/><path class="cls-2" d="M285.79,525.86v8.53c0,3.39-1.49,4.68-3.86,4.68s-3.87-1.29-3.87-4.68v-8.53c0-3.39,1.49-4.61,3.87-4.61S285.79,522.47,285.79,525.86Zm105.84-35.27-1.47,6.51L526.51,528l-6.24,12L406.74,514.13l-1.48,6.5,111.83,25.46L511.42,557l-88.48-20.14-1.48,6.5,86.78,19.75-2.35,4.51H89.38L87,563.11l86.78-19.75-1.48-6.5L83.86,557l-5.67-10.91L190,520.63l-1.48-6.5L75,540l-6.25-12L205.11,497.1l-1.47-6.51L65.58,521.86,60.43,512C83.57,507.85,145,496,180.72,480.62c1.38-.49,14.4-4.92,32.78-4.92,20.58,0,51.09,5.68,79.54,32.75l4.6,4.37,4.59-4.37c28.45-27.07,59-32.75,79.55-32.75,18.41,0,31.45,4.45,32.78,4.92C450.28,496,511.71,507.85,534.84,512l-5.15,9.9ZM257.59,515h-5c-1.15,3.18-2.44,6-8.2,6v5.29h5.76v36.17h7.45Zm35.65,11.38c0-7.59-4-11.92-11.31-11.92s-11.32,4.33-11.32,11.92V535c0,7,2.78,10.84,8.27,10.84a7.09,7.09,0,0,0,6.91-4.2v8.67c0,4.54-1.49,5.83-4.14,5.83-2.37,0-3.86-1.29-3.86-4.67v-1.7h-7V551c0,7.59,3.79,11.93,11.11,11.93,7.72,0,11.38-4.34,11.38-12.33Zm31.58,14.09c0-7-2.78-10.84-8.27-10.84a7.1,7.1,0,0,0-6.5,3.46l.61-11.32H323.6V515H304l-1.35,27.51h7V541c0-3.38,1.49-4.67,3.87-4.67s3.86,1.29,3.86,4.67v10.44c0,3.38-1.49,4.6-3.86,4.6s-3.87-1.22-3.87-4.6v-4.41h-7V551c0,7.59,3.79,11.93,11.11,11.93s11.11-4.34,11.11-11.93Zm31.52-14.09c0-7.59-3.8-11.92-11.12-11.92s-11.11,4.33-11.11,11.92v2.58h7.05v-3c0-3.39,1.49-4.68,3.86-4.68s3.86,1.15,3.86,5.42v2.65c0,3.79-1.69,5-4.47,5H341.5V541H344c3.39,0,4.88,1.63,4.88,6v3.73c0,4.2-1.49,5.35-3.86,5.35s-3.86-1.29-3.86-4.67v-4.41h-7.05V551c0,7.59,3.8,11.93,11.11,11.93s11.12-4.34,11.12-11.93v-3.72c0-4.81-1.5-8.34-5.22-10,3.59-1.49,5.22-4.68,5.22-9.76ZM175.18,420.1a173.2,173.2,0,1,1,122.46,50.72A172.06,172.06,0,0,1,175.18,420.1ZM140,297.64a157.63,157.63,0,1,0,46.17-111.46A156.57,156.57,0,0,0,140,297.64Z"/><path class="cls-3" d="M72.16,399.43l-7.73-19.18,4.88-2,5.59,13.89,43.23-17.44,2.14,5.29Zm418.42,54-23.89-6.88-13.35-29.23-4.1,4.28,10.83,24.14-5.43-1.51-14.12-13.54-3.95,4.12,14.12,13.54,1.64,5.37-24.53-9.76-4.1,4.28,29.82,12.26,7.83,23.42,4-4.17-8.56-25.55L474,470.67l4-4.12L460.74,450l25.84,7.52ZM57.87,359.84c-2-7.75,2-12.84,9.64-14.82l26-6.72c7.6-2,13.61.53,15.62,8.28s-2.06,12.78-9.66,14.75l-26,6.72C65.79,370,59.86,367.51,57.87,359.84ZM63,358.52c1,4,4.27,5.25,8.79,4.08l26.55-6.87c4.59-1.19,6.74-3.82,5.7-7.84s-4.19-5.26-8.79-4.07l-26.54,6.87C64.15,351.86,61.91,354.43,63,358.52Zm71.36-255.34c-1.87,1.57-3.75,2-5.78-.08l-2.78,2.34c3,3.37,7,3.6,10.8.4s4.36-7.25,1.44-10.71l-2.71,2.29C137,99.78,136.19,101.6,134.32,103.18ZM103.09,450.87c-5-6.28-3.37-12.53,2.86-17.44L127,416.82c6.17-4.86,12.67-5,17.63,1.3s3.27,12.52-2.9,17.38l-21.07,16.61C114.45,457,108,457.1,103.09,450.87Zm4.13-3.25c2.57,3.25,6,3.08,9.69.19l21.53-17c3.72-2.94,4.64-6.21,2.07-9.47s-6-3.13-9.69-.19l-21.53,17C105.63,441,104.61,444.3,107.22,447.62Zm166-364.3-5.08.57,2.3,20.32-5.75.65-5.82-51.54L270.19,52c8.1-.91,12.1,3.49,13,11.29l.7,6.19C284.79,77.69,281.45,82.39,273.27,83.32Zm-.58-5.16c4.27-.48,6.11-2.7,5.55-7.64l-.77-6.84c-.53-4.72-2.49-6.88-6.69-6.41l-5.52.63,2.35,20.84Zm-167.54,64,38.68,34.56,4-4.48-12.76-21.64-9.19-15.75,30.79,27.5,3.46-3.87-38.69-34.56-4.3,4.81,12.66,22.43,7.6,13-28.85-25.78ZM85.05,171l43.18,28.75,3.2-4.82-14.49-9.65-2.57-5.36,24.91,3.23,3.28-4.93-31-4.36-12.41-24-3.25,4.87L109.1,180,88.25,166.16Zm-10.47,19c-3.45,7.14-.39,12.74,6.68,16.15l24.16,11.68c7.07,3.41,13.35,2.34,16.8-4.8s.43-12.8-6.65-16.22l-5.8-2.81-2.39,4.94,6.08,2.94c4.2,2,5.93,4.92,4.09,8.72s-5.18,4.25-9.38,2.22L83.48,200.82c-4.2-2-5.9-5-4.1-8.73s5.19-4.25,9.39-2.22L93.24,192l2.39-4.93-4.21-2C84.35,181.65,78.07,182.73,74.58,189.93Zm126.85-120L196.05,72l19,48.29,5.38-2.12-8.53-21.73,11.86-4.65,8.53,21.73,5.38-2.12L218.68,63.11l-5.38,2.11L221.83,87,210,91.61Zm48-14.88-20.73,5.06L241,110.45l20.72-5.07-1.24-5.11L245.39,104,241,86l12.31-3-1.23-5-12.31,3-4.2-17.2,15.11-3.69Zm-73,26.66c-6.91,3.88-7.54,10.18-3.69,17l1.88,3.36,4.65-2.61-2-3.62c-2.28-4.07-2-7.47,1.64-9.5s6.68-.52,9,3.55l5,8.92L185,103.22l2.54,4.52,7.89-4.43,5.87,10.47c2.29,4.07,2,7.47-1.63,9.5s-6.68.52-9-3.55l-2.91-5.17L183,117.21l2.75,4.91c3.85,6.85,9.62,9.56,16.53,5.68s7.61-10.22,3.76-17.07L193,87.34C189.11,80.49,183.34,77.78,176.42,81.66Zm-47.29,34.8,33.42,39.68,4.59-3.87L157.23,128l-6.54-15.82,26.6,31.57,4-3.34-33.41-39.67-4.93,4.15L152,128.2l6,14.55L133,113.17ZM53.44,259.25l52.75-2.69-.8,5.73-10.62.54-1.81,13L103,279.24l-.73,5.29-50-17Zm5.84,5.38,28.86,9.78L89.74,263ZM50.5,297.32c-.06-8.15,4.73-11.67,12.58-11.73l6.23,0c8.22-.06,12.55,3.76,12.61,12l0,5.11,20.45-.15,0,5.78-51.88.39Zm5.26,0,0,5.55,21-.16,0-5.11c0-4.3-2-6.36-7-6.32l-6.89.05C58.09,291.34,55.73,293.06,55.76,297.29Zm9.14-83.8,44.7,13.71,1.16-3.75L122.44,227l-1.65,5.38-6.8-2.09-6.22,20.26,6.81,2.09L113,258l-11.69-3.58,1-3.19c-1.39-2.29-3.55-3.34-6.55-4.41L58.79,233.39Zm.49,16.35L97.26,241.4c3.48,1.3,5.45,2.45,6.6,4.51l4-13.11L68.21,220.63ZM105.12,332l-.7-5.66-46.26,5.74-1.84-14.86-5.22.65,2.54,20.52Zm16.94,77.32c4.38-2.35,6.9-2.87,9.31,1.3l4.55-2.62-.48-.84c-4-6.83-9.18-6.43-16.45-2.57l-29.8,15.81-5-8.6,40.38-23.28-2.89-5L76.78,409.4l10.55,18.3ZM456.21,412l11.48-17.82-6-3.85,3-4.68L475,392.22,473.19,395c.72,2.58,2.51,4.17,5.11,6L510.18,424,498.9,441.47l-39.31-25.32-2.13,3.3-10.28-6.62,3.05-4.73Zm6.55-.72,34.89,22.47,5.22-8.1-27.56-19.77c-3-2.19-4.58-3.83-5.13-6.13Zm74.3-52L499.74,347c-4.72-1.53-6.84-3-5.5-7.62l-5.05-1.47-.27.92c-2.15,7.64,1.72,11.08,9.53,13.66L530.5,363l-2.78,9.53-44.76-13-1.61,5.55,49.81,14.5Zm-18.67,49.93,8.78-19.45-47.28-21.34-8.78,19.45,4.8,2.17,6.4-14.19,16.82,7.59L493.91,395l4.73,2.14,5.22-11.55L520,392.86l-6.4,14.19Zm25.28-87.61-38.78-6.4c-4.91-.78-7.23-1.9-6.61-6.68l-5.22-.67-.12.95c-.94,7.88,3.41,10.68,11.53,12l33.29,5.47-1.27,9.85-46.23-5.94-.74,5.73L541,342.55Zm1.51-28c.13,8-4.92,12-12.85,12.14l-26.82.42c-7.86.13-13.11-3.72-13.23-11.72s5-11.94,12.85-12.06L532,282C539.88,281.84,545.06,285.69,545.18,293.61Zm-5.26.09c-.07-4.15-2.91-6.11-7.58-6l-27.42.43c-4.74.07-7.45,2.12-7.38,6.27s2.84,6.1,7.58,6l27.41-.43C537.2,299.89,540,297.92,539.92,293.7ZM411,138.37l16.7,13.3,3.27-4.12-12.17-9.69,11.49-14.43,9.92,7.89,3.23-4.06-9.91-7.89,11-13.86,12.17,9.7,3.28-4.12L443.32,97.8ZM457.87,126l-19.25,18.69c-5.64,5.47-6.78,11.74-1.26,17.43s11.88,4.79,17.52-.68l4.62-4.49L455.68,153l-4.83,4.7c-3.35,3.25-6.67,3.88-9.61.85S439,152.2,442.38,149l19.67-19.1c3.35-3.25,6.72-3.83,9.61-.85s2.21,6.32-1.14,9.57L467,142l3.82,3.94,3.35-3.26c5.63-5.47,6.77-11.74,1.2-17.48S463.5,120.49,457.87,126Zm58.18,131.15,24.75-3.82-.88-5.72-51.27,7.93.89,5.71,17.21-2.66,5.51,2.22L491.7,275.2l.9,5.86,25.84-17.72,25.36,9.35-.89-5.78Zm9.64-55.41-48.75,17.73,2.06,5.64,26.23-.94,17.09-.7-38.79,14.11,1.77,4.87,48.75-17.73-2.2-6.06-25.05.52-15.71.59,36.35-13.23Zm12.74,4-1.24-3.42c-4.19,1.69-5.78,5.34-4.08,10s5.31,6.58,9.55,5L541.45,214c-2.79.78-4.24-.59-5.07-2.88S535.8,206.93,538.43,205.74ZM341.35,59.5l.71-5.21-21.15-2.88-7,51.4,21.15,2.88.71-5.21-15.42-2.1,2.49-18.29,12.55,1.71.7-5.14L323.54,75l2.39-17.55Zm9.88,50.35,12.1-45,9.23,2.48,1.37-5.08-24.05-6.47-1.36,5.08,9.23,2.48-12.1,45ZM311.7,56.09l.13-5.26-20.67-.51-1.3,51.86,5.71.14,1.16-46.6ZM125.87,475.3c-5.81-5.61-5.43-10.59-.12-16.08l1.7-1.76c3.81-3.95,7.3-5.32,11.53-3.19-2.65-4.51-1.25-8.73,2.71-12.83l3-3.15c5.4-5.59,11.16-6.11,17-.5l8.58,8.29-36,37.31Zm19.53-19,3.63,3.5,13.44-13.91L158,441.58c-3-2.94-6-2.68-9.31.79l-3.19,3.3C141.52,449.83,141.83,452.81,145.4,456.26Zm-15.77,15.36,4.1,4,11.64-12-3.2-3.09c-3.3-3.19-6-3.77-9.79.12l-2.12,2.19C127.07,466.06,126.65,468.74,129.63,471.62Zm359.9-330.09-41.79,30.73,3.42,4.66,14-10.32,5.92-.58-11.56,22.3,3.51,4.78,14.71-27.65L504.59,162l-3.47-4.72L472.77,161,493,146.19ZM382.4,65.17,362.23,113l5.53,2.34L384.1,96.21,396,82.42l-16,38,4.77,2,20.17-47.8L399,72.17,381.87,91.4l-9.8,11.4,15-35.64ZM509.75,170.32,464,194.82l2.83,5.29,24.7-4.58,17.95-3.23-36.38,19.5,2.45,4.57,45.72-24.5-3-5.68-25.41,4.2-14.77,2.71,34.09-18.27Zm-90.65-88-5-3L403.5,97.09c-3.58,6-3.47,12.26,2.5,15.85a9.8,9.8,0,0,0,9,.66L403.2,133.3l4.89,2.94L434.8,91.77l-4.89-2.94-11.15,18.55c-2.53,3.06-5.47,3.8-8.46,2-3.5-2.1-3.86-5.95-1.61-9.69ZM316.55,529.58a7.1,7.1,0,0,0-6.5,3.46l.61-11.32H323.6V515H304l-1.35,27.51h7V541c0-3.38,1.49-4.67,3.87-4.67s3.86,1.29,3.86,4.67v10.44c0,3.38-1.49,4.6-3.86,4.6s-3.87-1.22-3.87-4.6v-4.41h-7V551c0,7.59,3.79,11.93,11.11,11.93s11.11-4.34,11.11-11.93V540.42C324.82,533.45,322,529.58,316.55,529.58Zm-72.17-8.67v5.29h5.76v36.17h7.45V515h-5C251.43,518.13,250.14,520.91,244.38,520.91Zm48.86,5.42v24.26c0,8-3.66,12.33-11.38,12.33-7.32,0-11.11-4.34-11.11-11.93v-1.22h7v1.7c0,3.38,1.49,4.67,3.86,4.67,2.65,0,4.14-1.29,4.14-5.83v-8.67a7.09,7.09,0,0,1-6.91,4.2c-5.49,0-8.27-3.86-8.27-10.84v-8.67c0-7.59,4-11.92,11.32-11.92S293.24,518.74,293.24,526.33Zm-7.45-.47c0-3.39-1.49-4.61-3.86-4.61s-3.87,1.22-3.87,4.61v8.53c0,3.39,1.49,4.68,3.87,4.68s3.86-1.29,3.86-4.68Zm59.43-11.45c-7.31,0-11.11,4.33-11.11,11.92v2.58h7.05v-3c0-3.39,1.49-4.68,3.86-4.68s3.86,1.15,3.86,5.42v2.65c0,3.79-1.69,5-4.47,5H341.5V541H344c3.39,0,4.88,1.63,4.88,6v3.73c0,4.2-1.49,5.35-3.86,5.35s-3.86-1.29-3.86-4.67v-4.41h-7.05V551c0,7.59,3.8,11.93,11.11,11.93s11.12-4.34,11.12-11.93v-3.72c0-4.81-1.5-8.34-5.22-10,3.59-1.49,5.22-4.68,5.22-9.76v-1.22C356.34,518.74,352.54,514.41,345.22,514.41ZM105,496.17c3.84-.87,7.75-1.78,11.7-2.73-2.57-2.37-5.13-4.77-7.61-7.25a266.81,266.81,0,1,1,377.1,0c-2.49,2.48-5,4.88-7.61,7.25,3.95.95,7.86,1.86,11.7,2.73a275.83,275.83,0,0,0,84-198.53C574.28,144.85,450.43,21,297.64,21S21,144.85,21,297.64A275.84,275.84,0,0,0,105,496.17Zm408.4,71.45H545v6.66H50.31v-6.66H81.87L50.31,506.94s84.56-13.74,128-32.52c0,0,14.27-5.38,35.24-5.38,23.25,0,54.75,6.62,84.14,34.58C327,475.66,358.52,469,381.78,469c21,0,35.24,5.38,35.24,5.38,43.39,18.78,128,32.52,128,32.52Zm-2-10.62,5.67-10.91L405.26,520.63l1.48-6.5L520.27,540l6.24-12L390.16,497.1l1.47-6.51,138.06,31.27,5.15-9.9c-23.13-4.11-84.56-15.94-120.28-31.34-1.33-.47-14.37-4.92-32.78-4.92-20.59,0-51.1,5.68-79.55,32.75l-4.59,4.37-4.6-4.37c-28.45-27.07-59-32.75-79.54-32.75-18.38,0-31.4,4.43-32.78,4.92C145,496,83.57,507.85,60.43,512l5.15,9.9,138.06-31.27,1.47,6.51L68.76,528,75,540l113.52-25.85,1.48,6.5L78.19,546.09,83.86,557l88.48-20.14,1.48,6.5L87,563.11l2.34,4.51H505.89l2.35-4.51-86.78-19.75,1.48-6.5ZM117.79,297.64A179.85,179.85,0,1,1,297.64,477.49,179.85,179.85,0,0,1,117.79,297.64Zm6.66,0a173.2,173.2,0,1,0,50.73-122.46A172.06,172.06,0,0,0,124.45,297.64Zm15.16,0a158,158,0,1,1,158,158A158,158,0,0,1,139.61,297.64Zm6.67,0a151.35,151.35,0,1,0,44.33-107A150.37,150.37,0,0,0,146.28,297.64Zm103.87-92.59-10.5,5v27.74l10.5-3.86Zm-.54,7.78v20.7l-4.44,1.64-.54.19L240.18,237V210.37l9.43-4.47v6.93Zm-48,114.23,2.52.05v.53l-5.57-.1V327l2.52,0V309.67l-2.52.18v-.54l5.57-.39v.53l-2.52.18Zm3.06-23.31-6.64.64v28.92l6.64.33Zm-.54,23.89v5.44l-5.57-.28V304.87l5.57-.53v23.3Zm-8.93-126.22v.63l-2.53,1.63v14.7l-.53.29V204l-2.53,1.63V205ZM182.71,224l-.54.29V210.4l-1.23.79,1-1.25,2.89-1.86v.63l-2.08,1.34Zm66.9-11.72v.59l-4.44,2v20.32l-.54.19V215.1l-4.45,2v-.59Zm-75.85,16.6-.54.29v-6.45l.54-.86Zm11-6.12V206.25c.19-.22.36-.46.54-.68V223l-5.77,3.2v-13.1l.53-.75v12.94M219,186.13v.63l-3.14,2v16.75l-.54.3v-16.7l-3.14,2v-.64ZM166.51,244.7l-4.19,2v19.52l4.19-1.53Zm-.54,6.16V264.3l-1.29.48-.53.19-1.29.48V247l3.11-1.47v5.31Zm84.69-90.6c-.67.23-1.34.44-2,.68l-8,5.32v26.09l10-5.51Zm-.53,6.48v19.78L246,188.83l-.54.3-4.17,2.31V166.55l8.89-6v6.14Zm7.4,91.84-.53.13V250l12.55-3.55v9.15l-.54.14v-8.59l-11.48,3.26v8.2ZM218.8,219.92,211,223.63v24.69l7.83-2.88Zm-.54,7.16v18l-3.11,1.15-.53.2-3.12,1.14V224l6.76-3.21v6.32Zm51.75-51-12,6.63V158l.54-.16v24l5.17-2.87.54-.29,5.17-2.87V155.2l.54-.09ZM218.26,226.5v.58l-3.11,1.42v17.71l-.53.2V228.74l-3.12,1.42v-.59ZM327,370.21l101.4-9c-.37.76-.77,1.5-1.15,2.25L328,372.27v9.21l-7,.52v8.37l-5.83.64v9l-6,.49V409l-5.92.64v8.11l-4.74.73v5.68L391,409c-1.1.92-2.23,1.82-3.36,2.72l-89.21,14.6v0l-114.88-38.7c-.81-1-1.63-2-2.41-3.06l115.15,38.78v-5L178.5,380.87c-.66-.95-1.33-1.91-2-2.88l120.93,38.49,3.59-.55V409.5L173.43,373.17c-.53-.88-1-1.78-1.53-2.67l130.31,37.11,4.76-.51v-6.78L169.46,366.18c-.44-.83-.86-1.68-1.29-2.52l140,34.74L313,398v-7.09L166.19,359.67c-.38-.8-.73-1.61-1.09-2.42L314.1,389l4.71-.52V381.9L163.46,353.52c-.33-.77-.62-1.56-.93-2.35l157.41,28.76,5.91-.44v-7.28l-164.72-24.6c-.52-1.43-1-2.89-1.47-4.35l29-.8-.05,2.15-28,.76ZM233.51,176.78v.64l-3.73,2.39v18l-.53.3V180.16l-3.74,2.39v-.63ZM166,250.27v.59l-1.29.58v13.34l-.53.19V251.69l-1.29.58v-.59Zm84.16-84.16v.63L246,169.42v19.41l-.54.3V169.77l-4.17,2.68v-.63Zm18.88,87v.55l-5.47,1.46v1.93l-.54.13v-1.92l-5.47,1.46v-.56Zm-93.47-25.29V219c.17-.28.35-.56.53-.83v10L170.91,231V226.7c.17-.31.36-.62.53-.93v4.35m46,72.39-8.1.78v30.59l8.1.41Zm-.54,25.36v5.86l-7-.36V303.78l7-.68v24.77Zm22.23.39v-.53l2.67,0v.54Zm-6.74-27.19-8.83.85V334.6l8.83.44Zm-.54,27.06v6.35l-7.76-.39V302.4l7.76-.74v26.47Zm-7.76-61.19-.53.13v-7.62l9.27-2.63v7.93l-.53.13v-7.36l-8.21,2.33v7.09ZM211,287.17l-.62.11v-.1Zm17.25,40.36,3.61.07v.53l-7.76-.13v-.54l3.62.07V307.77l-3.62.25v-.53l7.76-.56v.54l-3.61.26Zm11.29-64.46-.53.14v-8.14L249.92,252l.07,8.49-.54.13v-2.25l0-5.66-9.83,2.78v7.6ZM233.45,213l-8.89,4.21v26.14l8.89-3.27Zm-.53,7.45v19.25L229.27,241l-.53.2-3.65,1.34v-25l7.83-3.71v6.61Zm-68,87.16L161,308v23.49l3.93.19Zm-.54,19.36v4.14l-2.85-.14v-22.5l2.85-.27v18.77Zm77.46,8.58-3.21-.17V300.47l3.21-.31v.54l-2.67.25v33.9l2.67.13Zm-8.91-115.69v.59l-3.65,1.66V241l-.53.2V222.32L225.09,224v-.59ZM219.5,180.47l-7.89,5.28v22.73l7.89-4.38ZM219,203.79l-6.82,3.78V186l6.82-4.57Zm30.47,54.56v.55l-4.67,1.24v1.63l-.54.14v-1.62l-4.67,1.24V261ZM239.16,307v-.54l2.67-.19v.54ZM195.7,196.4l-5.83,3.9c-.28.32-.55.65-.84,1V221l6.67-3.69ZM195.16,217l-5.59,3.1V201.15l5.59-3.74Zm-31.95,109.4,1.16,0v.54l-2.85-.05v-.54l1.16,0v-14l-1.16.08V312l2.85-.2v.54l-1.16.08Zm42.27-38.23-7.15,1.25v-2.19h.54v1.56l2.77-.49.53-.09,2.78-.49v-.51h.53Zm-3.31,0-.53.09V287.2h.53Zm11.52,39.09,3.24.05v.54l-7-.12v-.54l3.24.06V308.81l-3.24.23v-.54l7-.5v.54l-3.24.23Zm-48-51.41L161.81,277v18.76l3.84-.57Zm-.54,5.49v13.33l-1.11.16-.54.08-1.11.17V277.37l2.76-.79v4.78Zm45.83-11.12-.54.13v-7.19l7.67-2.17v7.44l-.54.14v-6.87l-6.59,1.87v6.65Zm21.39-7.34v.56l-3.84,1v1.36L228,266v-1.36l-3.84,1v-.55Zm-14.8,3.94v.56l-3,.8v1.14l-.53.14v-1.14l-3,.81v-.55Zm-52.42,14v.56l-1.11.31v13.18l-.54.08V281.82l-1.11.32v-.56Zm13.37,6.48v5.07l1.89-.34.54-.09,1.9-.33v-4.33h.53V292l-5.4,1v-5.7Zm189.22,10.5v-.54l24.95-1.8V296l-12,.87v33.38l12,.21V331l-24.95-.44V330l12.37.22V296.88ZM171.3,326.53l1.59,0v.53l-3.71-.06v-.54l1.59,0V311.83l-1.59.11v-.53l3.71-.27v.54l-1.59.11Zm34.09-94.18v.58l-2.65,1.21v16.64l-.54.19V234.39l-2.66,1.2V235ZM367.17,341.82l26,1.31V285.56l-26,2.29Zm.53-44v-9.44l24.95-2.2v56.43l-24.95-1.26m-172.87-110-7,3.3v22.24l7-2.56Zm-.53,6.7v15.9l-2.68,1-.54.19-2.68,1V234.92l5.9-2.8V238Zm-20.87,68.78-4.79.46v24.61l4.79.24Zm-.54,20.33v4.42l-3.71-.19V307.71l3.71-.36v19.74ZM332,240l-.54.13V228.87L352.16,223v21.52l-.54-1V223.7L332,229.27V240Zm-40.62-46.69v.59L285,196.75v23.77l-.53.2V197l-6.37,2.9v-.59ZM173.62,278.53v.56l-1.5.4v14l-.54.1V279.63l-1.5.4v-.56Zm117.73-31.34v.55l-6.22,1.66v2.27l-.53.14v-2.27l-6.22,1.65v-.55ZM205.93,226,199,229.3v23.42l6.92-2.55Zm-.54,6.91V249.8l-2.65,1-.54.19-2.66,1V229.63l5.85-2.77v6.07Zm162.31-5.51v-.56l23.81-6.34v.56l-11.64,3.1V257l-.53.09V224.32Zm-76.35,22.7v-9.33l-13,3.68v8.89l-.53.14v-9.44l14-4V250Zm-117.2,43.53-4.61.81V274.77l4.61-1.31v6l-.53.13v-5.4l-3.54,1v18.65l1.5-.26.54-.1,1.5-.26v-5.91h.53ZM188.07,276l-.53.13v-6.42l6.28-1.78v6.63l-.53.13v-6.06l-5.22,1.48V276Zm-4.36-33.75v.59l-2,.88V258.5l-.54.19V243.93l-1.95.88v-.59Zm135-2.31v.56l-7.89,2.1v2.68l-.54.14V242.7l-7.89,2.1v-.55ZM318.28,181v.58L310.83,185v26l-.54.2v-26l-7.89,3.59v-.59Zm-134,55.27-5.5,2.61v21.27l5.5-2Zm-.53,6.5v15l-2,.72-.54.19-1.95.72V239.25l4.44-2.11v5.66Zm118.69,4.55-.54.14V237.25l17.4-4.93v10.81l-.54.14V233l-16.32,4.63v9.69Zm64.77,12.42L392,255.39V211.68l-24.87,7.06Zm.53-32.91v-7.72l23.81-6.75v42.55L379.87,257l-.53.09-11.64,2.05V226.86Zm-48.89-54.35-16.95,8v34.34l16.95-6.24Zm-.53,9.1v26.66L310.83,211l-.54.2-7.89,2.9V180.88l15.88-7.53v8.26Zm-26.4,3.66-14.34,6.8v31.76l14.34-5.28Zm-.53,8.59v24.32L285,220.52l-.53.2-6.37,2.34V192.41l13.27-6.29v7.74ZM194.3,237.39V238l-2.68,1.22v15.67l-.54.19V239.44l-2.68,1.22v-.59Zm157.32-6.25v.56l-9.56,2.54v3.19l-.53.13v-3.18L332,236.93v-.55Zm-176.34,9.41-4.91,2.32v20.38l4.91-1.8Zm-.54,6.32v14.21l-1.65.6-.53.2-1.65.61V243.21l3.83-1.82v5.48Zm0-.59v.59l-1.65.75v14.06l-.53.2v-14l-1.65.75V248Zm8.07,29.81v.55l-1.9.51v.6l-.54.13v-.59l-1.89.5v-.55Zm-4.33,2.27-.54.13v-6.1l5.4-1.53v6.28l-.53.13v-5.71l-4.33,1.23v5.57Zm27.82-84.1v.64l-2.79,1.79v15.66l-.53.3V197l-2.79,1.79v-.64Zm181-10.81-21.05,7.74V169.65l.54.28v20.5l11.53-4.24.53-.2,8-2.93ZM205,270.19v.56l-2.78.73v.95l-.53.13v-.93l-2.77.73v-.55Zm-6.08,3.07-.54.13v-6.78l7.15-2v7l-.53.14v-6.45L198.87,267v6.25ZM269,203.42V204l-5.47,2.49v21.91l-.54.19V206.74l-5.47,2.49v-.59ZM187.24,310.66v-.54l2.19-.16v.54Zm0,16.68v-.53l1.8,0v.54ZM332,175.39v-.59l18.8-8.55v.59L341.64,171v28.69l-.54.19V171.24Zm30.64,99.92,3.63-2.36-19.18-35.67L174.67,280.41v5.81l15.31-.05h1.07l-1.38,59.71h7.14l0-1.5,46.07-1.26v4.72l7.95.78,7.66.74,52.85,5.15L329,353.4v9.3h10.53l-.07-10,22-1.39,68.54,6.17c.31-.69.63-1.37.93-2.07l-68.38-6.15ZM191.1,284h-5.93l6-1.39Zm3.59,59.71h-2.82l1.41-61.52,2.23-.4ZM242.9,341l-46.05,1.27.75-56.09,45.3-.15ZM256.72,347l-3.73-.36v-48l3.73-.37Zm0-50.91-3.73.37V284.94l3.73-.59Zm6.07,51.5-1.89-.18-2-.2V336.57l3.92.14Zm0-17.15h-1.43v3.12h1.43v1l-3.92-.15V314l3.92-.13Zm6.07,17.74-3.93-.38v-11l3.93.15Zm0-13.43-3.93-.14V313.81l3.93-.13Zm0-23.25-10,.34V298.07l10-1Zm0-16.62-10,1V284l10-1.56Zm15.58,54.82L271,348.43V296.86l13.44-1.34Zm0-56.37L271,294.71V282.13L284.44,280Zm7.52,57.1-5.38-.53V337.59l5.38.2Zm0-19.55h-1.42v3.73H292v1l-5.38-.2V313.08l5.38-.19Zm7.52,20.28-5.38-.52V337.87l5.38.2Zm0-15.28-5.38-.19V312.82l5.38-.18Zm0-25.42-12.9.43V295.31l12.9-1.29Zm0-18.63-12.9,1.29V279.7l12.9-2ZM307,351.93l-5.35-.52v-57.6l5.35-.53Zm0-60.8-5.35.53v-14.3l5.35-.83Zm22,60.12-12.07.76V293.23l11,.61V291.7l-11-.62v-15.4l11,.66V274.2l-8.34-.5,9.42-5.23Zm0-89.06V266l-13.67,7.59-.55.94v77.59l-3.4.22-2.29-.22V274l-58.26,9.08v63.37L245,345.9v-2.84h0l0-1.06V283.86l-47.41.14,0-2.15,53.56-.77h.16L307.3,272l.44-.18,22.11-15.66ZM204.15,279.61l138.38-32.27,1.11,1.72h-7.18l-.62.2-29.13,20.63-55.61,9.05Zm127,80.95V262.41l.64-4.65h4.41l.46,4.7.72,98.1Zm7-104.94h-7.58l6.24-4.42h6.95l-5.17,8.9Zm22.33,93.65-15.82,1V294.78l15.82.88Zm0-55.76-15.82-.88V277.34l15.82,1Zm0-17.37L340,274.92l0,2.14,2.53.15v15.3l-2.42-.13,0,2.14,2.4.14V350.4l-3.06.19L338.8,263l.55-.3.4-.4,5.91-10.15L360.47,275Zm-17-31.23L191.59,280.35l-.41.07v0l-14.37,3.35v-1.7L346,239.76l17.46,32.46-1.57,1ZM285.39,167l-.53.29V153l.53,0Zm6.78-3.15-14.09,7.81V153.8l.53-.07v17l6.25-3.46.53-.29,6.25-3.46V152.6h.53Zm-58.12,6.89L225,176.79v24.28l9.07-5Zm-.54,25-8,4.43V177.08l8-5.36Zm78-42.6-9.35,5.17v-5.73h.54v4.81l7.59-4.2.53-.12Zm39.81,43.56L331.43,204V166.52l13.2-6.25.73.24L332,166.86v36.37l9.13-3.36.54-.19,9.13-3.37V162.52l.54.21Zm76.45,51.89-.53.09v-16.6c.18.35.36.69.53,1Zm-12.37,82.8v12.33l19.71,1.07-.18.53-20.07-1.09V283.46l.24,0,26.83-2.59c0,.18.05.35.07.53L415.39,284v47.43ZM269.55,195.86,257,201.81v29.57l12.55-4.61ZM269,204v22.38l-5.47,2-.54.19-5.47,2V202.15L269,196.71V204Zm143,11.62v-.56l4.3-1.14.33.46Zm18.95,115.49,8.07.15-.12.53-23.49-.42v-.54l15,.28V293.28l-15,1.1v-.54l27.39-2c0,.18,0,.36,0,.54l-11.87.86ZM177.75,311.33v-.53l4.43-.32V311l-2,.14v15.53l2,0v.53l-4.43-.07v-.54l1.95,0V311.19Zm80.84-150v-.64l7.31-4.7c.52-.12,1-.25,1.55-.36l-3.15,2v21l-.54.29V158Zm-81.38,171,5.51.28V305.86l-5.51.53Zm.54-21.46v-3.92l4.43-.43V332l-4.43-.22v-21ZM378.84,186l-.53.2V176.9l.53.35Zm-172,2.95-7.17,4.81V215.1l7.17-4Zm-.53,21.87-6.11,3.38V194L206.3,190Zm-19.59,94.67,2.83-.29v.54l-2.29.23v26.27l1.68.09,0,.53-2.19-.11ZM434.18,248l-22.74,4V207.48l.54.68v43.19l15.25-2.68.53-.09,6.23-1.1C434.06,247.65,434.12,247.82,434.18,248ZM188.07,287.25v3.41l1.81-.32v.55l-2.33.41v-4.05Zm5.22-13.95v.55l-2.34.62v.77l-.54.13v-.75l-2.34.62v-.56Zm-12.38,18.62-.54.09v-4.74h.54Z"/></g></svg>